<?xml version="1.0" standalone="no"?>
<!DOCTYPE svg PUBLIC "-//W3C//DTD SVG 20010904//EN"
 "http://www.w3.org/TR/2001/REC-SVG-20010904/DTD/svg10.dtd">
<svg version="1.0" xmlns="http://www.w3.org/2000/svg"
 width="1231.000000pt" height="622.000000pt" viewBox="0 0 1231.000000 622.000000"
 preserveAspectRatio="xMidYMid meet">

<g transform="translate(0.000000,622.000000) scale(0.100000,-0.100000)"
fill="#000000" stroke="none">
<path d="M5425 5360 c-47 -6 -46 -7 25 -8 41 0 84 3 95 8 24 10 -44 10 -120 0z"/>
<path d="M5328 5323 c7 -3 16 -2 19 1 4 3 -2 6 -13 5 -11 0 -14 -3 -6 -6z"/>
<path d="M5365 5315 c6 -2 53 -15 106 -28 87 -21 96 -21 92 -6 -3 10 -19 19
-41 22 -57 9 -168 18 -157 12z"/>
<path d="M6505 5216 c-22 -8 -56 -33 -76 -55 -54 -60 -63 -126 -28 -199 42
-86 152 -126 242 -88 71 29 125 127 112 200 -21 110 -144 180 -250 142z m107
-109 c26 26 51 44 55 40 4 -4 -12 -27 -35 -50 -23 -24 -42 -47 -42 -52 0 -5
19 -28 42 -52 55 -56 41 -70 -15 -15 -24 23 -47 42 -53 42 -5 0 -27 -18 -49
-40 -21 -21 -42 -37 -48 -33 -5 3 12 26 37 52 l46 47 -40 39 c-22 21 -40 46
-40 54 0 10 19 -3 47 -32 l48 -47 47 47z"/>
<path d="M4694 4919 c-41 -12 -84 -56 -84 -85 0 -22 4 -24 44 -24 36 0 46 4
51 20 4 14 15 20 34 20 34 0 51 -17 51 -51 0 -37 -33 -59 -87 -59 l-43 0 0
-50 0 -50 45 0 c41 0 45 2 45 25 0 20 5 25 25 25 34 0 82 25 95 49 15 29 12
104 -6 129 -30 43 -112 68 -170 51z"/>
<path d="M4668 4569 c-21 -12 -24 -59 -6 -77 29 -29 98 -6 98 33 0 46 -49 69
-92 44z"/>
<path d="M8205 4283 c-33 -70 -77 -154 -98 -188 -22 -33 -32 -53 -24 -45 36
35 197 325 197 355 0 24 -24 -15 -75 -122z"/>
<path d="M6020 4248 c-159 -13 -303 -59 -414 -133 -71 -47 -146 -113 -146
-129 0 -7 40 -25 93 -42 85 -27 103 -29 252 -29 138 0 172 4 243 24 l82 23 2
102 2 101 3 -97 c2 -54 5 -98 6 -98 1 0 38 12 82 26 69 23 102 27 245 31 151
4 173 2 260 -20 l94 -24 -65 62 c-93 87 -207 147 -342 179 -38 9 -47 -17 -17
-49 31 -33 19 -43 -18 -16 -16 11 -32 18 -35 15 -16 -16 -56 8 -68 41 -12 32
-17 35 -54 37 -22 1 -56 2 -75 3 -19 1 -78 -2 -130 -7z"/>
<path d="M6290 4231 c0 -14 30 -41 45 -41 16 0 38 34 28 44 -10 10 -73 7 -73
-3z"/>
<path d="M3888 4101 l-47 -69 51 -6 c28 -4 113 -27 189 -51 194 -63 311 -77
467 -59 l52 7 0 123 0 124 -332 0 -333 -1 -47 -68z"/>
<path d="M8442 4051 c-69 -101 -79 -120 -64 -126 34 -13 257 -17 330 -6 40 6
134 31 210 55 76 25 166 48 200 52 l62 7 0 68 0 69 -328 0 -328 0 -82 -119z"/>
<path d="M3595 3679 c-126 -182 -238 -343 -248 -358 l-17 -28 99 33 c55 18
141 39 193 45 84 10 227 7 285 -7 18 -5 31 8 80 82 l58 87 3 -101 3 -101 52
-19 c115 -43 185 -53 340 -50 107 2 147 0 147 -9 0 -16 -135 -27 -242 -19 -48
4 -128 18 -176 33 -48 14 -95 28 -104 30 -17 5 -18 -14 -18 -310 l0 -316 98
-33 c96 -32 100 -32 282 -32 118 0 194 4 210 11 25 12 25 12 -7 12 l-33 1 0
155 0 154 96 -44 c53 -25 100 -45 105 -45 41 0 -72 65 -162 93 l-39 12 0 470
0 470 -178 0 -177 1 -140 46 c-121 41 -234 69 -269 68 -6 0 -114 -149 -241
-331z"/>
<path d="M6330 3999 c-24 -5 -77 -18 -117 -30 l-73 -22 0 -43 0 -44 360 0 360
0 2 -277 3 -277 59 -18 c33 -10 84 -21 114 -25 l54 -6 -7 59 c-24 206 -136
534 -182 534 -13 0 -14 3 -5 8 24 16 -40 88 -95 106 -130 43 -348 59 -473 35z"/>
<path d="M9093 3999 c-28 -5 -116 -30 -195 -56 l-143 -47 -170 0 c-93 -1 -187
1 -207 4 l-37 5 -184 -265 -183 -265 73 -13 c41 -6 127 -30 191 -51 64 -22
140 -42 167 -46 l50 -6 90 137 90 137 3 -138 3 -138 64 6 c35 3 125 26 200 51
74 25 156 48 183 51 26 3 57 8 70 11 l22 4 0 315 c0 294 -1 315 -17 314 -10
-1 -41 -5 -70 -10z"/>
<path d="M5425 3952 c-3 -3 -5 -17 -5 -31 0 -19 -3 -22 -9 -12 -6 10 -22 -11
-56 -73 -72 -132 -115 -257 -150 -433 -6 -30 -5 -33 19 -33 14 0 26 -4 26 -10
0 -5 -11 -10 -24 -10 -30 0 -34 -10 -42 -120 l-7 -90 116 0 116 0 4 98 3 97 2
-97 2 -98 355 0 355 0 0 84 c0 116 0 116 -75 116 -73 0 -96 -6 -89 -25 7 -17
-12 -22 -119 -30 l-88 -7 6 39 c24 139 72 272 110 303 13 11 15 7 15 -23 l0
-36 25 24 c30 31 50 34 35 5 -6 -11 -15 -20 -20 -20 -6 0 -10 -4 -10 -10 0
-15 16 -12 34 5 17 17 36 20 36 5 0 -5 8 -10 18 -10 10 0 23 -5 30 -12 9 -9
12 -9 12 0 0 6 -9 16 -21 22 -24 13 -23 15 13 24 26 6 27 4 30 -36 2 -35 7
-43 23 -43 11 0 19 -6 17 -12 -1 -7 2 -13 7 -13 9 0 29 69 33 116 2 22 -6 41
-26 65 -24 28 -26 35 -12 37 13 3 16 16 16 73 l0 69 -355 0 -355 0 0 -247 c0
-135 -2 -244 -5 -242 -2 3 -5 116 -5 252 l-1 248 360 -1 361 0 0 38 0 39 -92
-24 c-84 -22 -108 -24 -253 -20 -143 3 -170 7 -257 34 -54 17 -100 28 -103 25z
m201 -242 c18 -18 84 -48 84 -39 0 8 16 8 59 0 3 -1 -5 -10 -18 -22 -12 -11
-28 -18 -36 -16 -7 3 -16 -1 -19 -9 -5 -13 -10 -13 -35 2 -28 16 -32 16 -73 1
-24 -9 -53 -17 -65 -17 -31 0 -73 21 -73 36 0 18 62 54 112 63 24 5 45 9 49
10 3 1 10 -4 15 -9z"/>
<path d="M5610 3682 c0 -11 49 -26 58 -17 8 7 0 12 -31 20 -16 4 -27 3 -27 -3z"/>
<path d="M6140 3780 l0 -70 38 0 c56 0 133 -25 180 -59 50 -37 87 -98 117
-194 l23 -72 78 -8 c44 -5 119 -20 167 -33 48 -13 92 -24 97 -24 6 0 10 103
10 265 l0 265 -355 0 -355 0 0 -70z"/>
<path d="M5937 3505 c9 -48 16 -49 27 -1 6 25 5 28 -7 17 -12 -9 -16 -9 -21 1
-3 7 -3 0 1 -17z"/>
<path d="M5995 3520 c3 -5 8 -10 11 -10 2 0 4 5 4 10 0 6 -5 10 -11 10 -5 0
-7 -4 -4 -10z"/>
<path d="M5963 3463 c-23 -9 -14 -20 12 -15 14 2 22 8 19 13 -6 10 -12 10 -31
2z"/>
<path d="M2991 3341 c-41 -15 -77 -33 -79 -41 -5 -15 -1 -14 103 24 38 14 71
30 73 35 6 17 -16 13 -97 -18z"/>
<path d="M3545 3335 c-33 -7 -102 -28 -152 -47 l-93 -33 -216 -310 c-119 -170
-218 -315 -221 -322 -7 -17 109 -26 251 -20 107 4 135 10 248 47 l127 41 211
321 c116 176 208 323 205 327 -13 13 -300 10 -360 -4z"/>
<path d="M6508 3316 l4 -36 -57 26 c-56 26 -62 26 -178 20 -67 -4 -125 -10
-129 -12 -4 -3 -8 -43 -8 -90 l0 -84 355 0 355 0 0 75 0 74 -82 26 c-50 16
-119 28 -174 32 l-90 6 4 -37z"/>
<path d="M7712 2999 c-133 -193 -241 -353 -239 -355 2 -2 35 7 73 20 113 39
214 56 336 55 62 0 133 -4 158 -7 l45 -7 169 255 c93 140 170 260 173 266 2 7
-13 14 -40 18 -25 4 -105 26 -179 50 -73 24 -160 47 -193 50 l-60 7 -243 -352z"/>
<path d="M9035 3330 c-38 -10 -104 -31 -145 -45 -64 -23 -196 -54 -237 -55 -9
0 -13 -21 -13 -69 l0 -70 36 6 c34 6 35 5 29 -23 -13 -56 -28 -99 -46 -129
-16 -25 -19 -52 -19 -167 l0 -138 -177 -1 -178 -1 75 -20 c63 -16 101 -18 235
-15 158 4 161 4 302 50 115 38 234 67 276 67 4 0 7 142 7 315 l0 315 -37 -1
c-21 0 -69 -9 -108 -19z"/>
<path d="M6860 3211 l0 -71 121 0 120 0 -3 43 c-3 40 -5 42 -43 50 -37 8 -135
32 -177 44 -16 5 -18 -3 -18 -66z"/>
<path d="M5170 3002 c0 -71 3 -163 6 -205 l7 -76 56 -6 c31 -4 79 -13 108 -21
28 -8 54 -14 57 -14 3 0 6 101 6 225 l0 225 -120 0 -120 0 0 -128z"/>
<path d="M5420 2902 l0 -228 63 -22 c83 -29 183 -52 230 -52 24 0 37 -5 37
-13 0 -20 -132 -3 -240 32 l-90 29 0 -114 0 -114 203 -3 202 -2 -202 -3 c-182
-2 -202 -4 -206 -19 -4 -17 -5 -17 -6 0 0 9 -7 17 -13 17 -10 0 -10 2 0 8 9 6
12 38 10 123 l-3 114 -65 17 c-36 9 -84 17 -107 17 -51 1 -50 4 -28 -125 26
-150 63 -263 130 -400 74 -149 74 -149 230 -195 71 -21 99 -24 250 -23 183 1
166 -3 400 74 96 32 107 33 265 34 91 1 184 -2 207 -7 39 -7 43 -5 60 23 15
26 23 30 60 30 l43 0 0 155 0 154 -72 4 -73 3 73 2 72 2 0 355 0 355 -355 0
-355 0 0 -355 0 -355 148 0 148 0 18 33 c14 28 14 17 -1 -20 -4 -9 26 -13 119
-16 l123 -3 -123 -2 -123 -2 -60 -62 c-56 -58 -57 -59 -15 -9 25 29 46 57 46
62 0 5 -63 9 -140 9 l-139 0 -4 -157 -3 -158 -2 157 -2 157 -142 4 -143 3 143
2 142 2 0 355 0 355 -355 0 -355 0 0 -228z m1075 -67 c32 -39 36 -49 31 -80
l-7 -35 39 0 c23 0 45 -6 52 -15 10 -12 5 -13 -38 -8 l-49 5 -13 -78 -13 -79
-23 100 c-26 111 -43 222 -36 230 11 11 22 3 57 -40z m-15 -332 c-11 -17 -11
-17 -6 0 3 10 6 24 7 30 0 9 2 9 5 0 3 -7 0 -20 -6 -30z"/>
<path d="M6860 2776 l0 -355 38 -4 37 -4 -37 -1 -38 -2 0 -155 c0 -131 2 -155
15 -155 8 0 15 -5 15 -11 0 -23 22 6 56 72 42 85 89 222 113 333 l18 83 -67
12 c-38 7 -77 19 -87 27 -17 14 -15 15 17 9 77 -14 135 -23 137 -21 1 1 6 40
12 86 16 139 24 314 16 379 l-7 61 -119 0 -119 0 0 -354z"/>
<path d="M8504 2927 c-32 -35 -93 -103 -134 -150 -41 -47 -76 -82 -78 -77 -2
5 1 26 7 47 6 21 7 41 2 46 -5 5 -11 -13 -15 -40 -4 -26 -14 -64 -22 -83 l-15
-36 -97 4 c-53 2 -99 6 -101 8 -2 2 2 10 8 18 7 8 8 17 4 19 -5 3 -58 9 -118
12 -139 9 -237 -4 -387 -52 l-118 -38 0 -232 0 -233 580 0 580 0 0 -100 0
-100 43 0 c60 0 158 23 300 68 67 22 148 43 180 47 l57 6 0 40 0 39 145 0 145
0 0 250 0 250 -145 0 -145 0 0 26 c0 27 0 27 -62 21 -35 -3 -103 -20 -153 -37
-135 -46 -231 -68 -325 -75 -95 -8 -248 7 -328 30 l-52 16 16 30 c8 17 80 97
160 177 79 81 144 150 144 154 0 19 -21 4 -76 -55z m628 -399 c5 -77 -20 -157
-59 -188 -23 -18 -63 -28 -63 -15 0 3 18 41 40 85 43 85 45 90 32 90 -5 0 -28
-38 -51 -85 -43 -89 -61 -100 -61 -36 0 48 40 110 94 144 51 32 66 33 68 5z"/>
<path d="M3425 2646 c-16 -7 -75 -25 -130 -41 -85 -24 -119 -28 -225 -29 -69
0 -146 3 -172 8 l-48 7 0 -225 0 -226 578 -2 577 -3 3 -55 3 -56 102 -32 c144
-46 205 -55 350 -50 85 2 126 0 124 -7 -2 -6 -65 -10 -173 -10 -163 0 -172 1
-271 33 -56 18 -109 35 -118 38 -13 5 -15 -14 -15 -150 l0 -156 98 0 98 0 35
-37 c26 -28 42 -60 59 -118 23 -79 59 -161 60 -138 0 6 -14 47 -31 90 -17 42
-31 87 -31 100 0 12 -16 36 -34 54 -19 18 -34 37 -34 41 0 4 83 8 185 8 l185
0 0 225 0 225 135 0 135 0 0 245 0 245 -49 0 c-27 0 -91 -11 -143 -24 -176
-46 -367 -43 -533 9 -78 24 -88 25 -382 25 -175 0 -303 4 -305 9 -2 5 -16 4
-33 -3z"/>
<path d="M6325 2026 c-33 -8 -119 -33 -190 -56 -127 -42 -133 -43 -295 -47
-151 -4 -173 -2 -260 20 -52 14 -104 28 -115 32 -37 13 104 -113 172 -154 295
-174 818 -155 1063 39 15 11 19 20 11 20 -10 0 -12 12 -9 53 3 28 8 59 12 68
10 23 -22 29 -189 34 -98 3 -158 1 -200 -9z"/>
<path d="M9110 2029 c-30 -4 -120 -28 -200 -54 -101 -32 -170 -48 -227 -52
l-83 -6 0 -108 0 -109 290 0 290 0 0 170 c0 94 -3 169 -7 169 -5 -1 -33 -5
-63 -10z"/>
<path d="M6860 1961 c0 -5 5 -13 10 -16 6 -3 10 -2 10 4 0 5 -4 13 -10 16 -5
3 -10 2 -10 -4z"/>
<path d="M6748 1940 c-11 -38 -10 -56 3 -43 6 6 9 23 7 39 l-3 29 -7 -25z"/>
<path d="M6830 1921 c0 -11 5 -23 10 -26 6 -3 10 3 10 14 0 11 -4 23 -10 26
-5 3 -10 -3 -10 -14z"/>
<path d="M6800 1892 c0 -23 5 -42 10 -42 7 0 8 14 4 38 -9 51 -14 53 -14 4z"/>
<path d="M8282 1708 c-62 -64 -151 -176 -152 -191 0 -5 16 13 36 40 20 26 41
53 48 58 37 33 138 146 134 150 -3 3 -32 -23 -66 -57z"/>
<path d="M7170 1714 c-63 -13 -119 -29 -124 -34 -14 -14 2 -13 123 11 58 11
116 23 129 25 26 5 30 24 5 23 -10 0 -70 -11 -133 -25z"/>
<path d="M4340 1545 c19 -19 36 -35 39 -35 3 0 -10 16 -29 35 -19 19 -36 35
-39 35 -3 0 10 -16 29 -35z"/>
<path d="M4475 1420 c38 -38 72 -70 74 -70 3 0 -26 32 -64 70 -38 39 -72 70
-74 70 -3 0 26 -31 64 -70z"/>
<path d="M4575 1327 c11 -15 60 -61 109 -102 80 -67 106 -84 106 -71 0 5 -182
163 -214 186 l-21 15 20 -28z"/>
<path d="M5414 1326 c-51 -23 -74 -61 -74 -122 0 -64 32 -108 89 -124 88 -23
171 37 171 126 0 35 -28 92 -54 109 -33 22 -97 27 -132 11z m101 -61 c50 -49
17 -145 -50 -145 -33 0 -75 42 -75 75 0 31 24 81 42 88 30 12 60 5 83 -18z"/>
<path d="M6233 1329 c-62 -18 -96 -96 -74 -170 27 -91 162 -113 225 -38 21 24
26 41 26 83 0 62 -24 100 -76 122 -38 16 -55 16 -101 3z m94 -54 c30 -21 39
-74 19 -113 -24 -47 -66 -55 -110 -21 -20 16 -26 29 -26 60 0 71 64 111 117
74z"/>
<path d="M5060 1200 l0 -130 30 0 29 0 3 82 3 83 53 -83 c47 -72 56 -82 82
-82 l30 0 0 130 0 130 -30 0 -29 0 -3 -82 -3 -82 -54 82 c-46 71 -57 82 -82
82 l-29 0 0 -130z"/>
<path d="M5632 1313 c2 -12 14 -19 36 -21 l32 -3 0 -110 0 -109 30 0 30 0 0
110 0 110 35 0 c28 0 35 4 35 20 0 19 -7 20 -101 20 -90 0 -100 -2 -97 -17z"/>
<path d="M5960 1205 l0 -125 24 0 c23 0 25 4 28 53 l3 52 43 3 c28 2 42 8 42
17 0 9 -14 15 -42 17 -40 3 -43 5 -43 33 0 29 2 30 53 33 44 3 52 6 52 23 0
17 -7 19 -80 19 l-80 0 0 -125z"/>
<path d="M6460 1245 c0 -104 15 -147 59 -165 44 -18 101 -7 129 25 20 23 22
37 22 126 0 99 0 99 -25 99 -25 0 -25 0 -25 -95 0 -83 -2 -96 -19 -105 -59
-31 -81 -1 -81 111 l0 89 -30 0 -30 0 0 -85z"/>
<path d="M6740 1199 l0 -130 28 3 c26 3 27 5 32 83 l5 79 50 -82 c46 -76 52
-82 82 -82 l33 0 0 130 0 130 -25 0 c-24 0 -25 -2 -25 -74 0 -41 -3 -77 -8
-80 -4 -2 -32 31 -62 75 -46 66 -59 79 -82 79 l-28 0 0 -131z"/>
<path d="M7020 1205 l0 -127 85 3 c76 4 87 7 111 30 31 32 43 103 24 148 -19
47 -55 64 -142 69 l-78 5 0 -128z m147 63 c17 -16 23 -33 23 -63 0 -55 -17
-75 -68 -82 l-42 -6 0 87 0 86 32 0 c19 0 41 -9 55 -22z"/>
<path d="M7782 1016 c-63 -16 -83 -32 -27 -22 22 4 61 9 88 13 50 6 66 24 20
22 -16 0 -52 -6 -81 -13z"/>
<path d="M7650 975 c-19 -7 -28 -13 -20 -13 8 0 31 6 50 13 19 7 28 13 20 13
-8 0 -31 -6 -50 -13z"/>
</g>
</svg>
